<?xml version="1.0" encoding="UTF-8"?>
<svg id="Layer_2" data-name="Layer 2" xmlns="http://www.w3.org/2000/svg" viewBox="0 0 98.9 189.46">
  <defs>
    <style>
      .cls-1 {
        fill: #4fc646;
        stroke-width: 0px;
      }
    </style>
  </defs>
  <g id="Layer_1-2" data-name="Layer 1">
    <g id="objects">
      <path class="cls-1" d="m80.33,149.84c-6.6,3.86-12.89,6.15-18.06,7.51-1.32,13.18-3.36,24.49-4.36,29.66-.32,1.65-2.05,2.72-3.85,2.4h0c-1.75-.32-2.9-1.86-2.58-3.47,1.55-7.78,3.04-16.85,3.87-31.78,2.73-49.05-5.92-74.49-5.92-74.49,0,41.74-5.15,74.57-5.9,79.13-5.73-.89-15.01-3.13-24.98-8.96C-1.99,137.81.06,113.27.06,113.27c1.35,1.06,4.3,1.47,4.3,1.47-5.65-17.11,0-35.7,0-35.7,1.06,1.47,4.55,2.53,4.55,2.53-4.83-11.62,0-25.57,0-25.57,1.61,1.69,4.57,2.32,4.57,2.32.8-10.77,29-34.23,35.98-58.33,6.98,24.1,35.16,47.55,35.98,58.33,0,0,2.94-.63,4.57-2.32,0,0,4.82,13.95,0,25.57,0,0,3.49-1.06,4.55-2.53,0,0,5.63,18.59,0,35.7,0,0,2.94-.42,4.29-1.47,0,0,2.05,24.54-18.51,36.56Z"/>
    </g>
  </g>
</svg>